<svg width="75.000000" height="68.000000" viewBox="0 0 75 68" fill="none" xmlns="http://www.w3.org/2000/svg" xmlns:xlink="http://www.w3.org/1999/xlink">
	<desc>
			Created with Pixso.
	</desc>
	<defs/>
	<path id="Star 2" d="M17.5 33L12.77 45.77L0 50.5L12.77 55.22L17.5 68L22.22 55.22L35 50.5L22.22 45.77L17.5 33Z" fill="#BCEC30" fill-opacity="1.000000" fill-rule="evenodd"/>
	<path id="Star 2" d="M12.77 45.77L0 50.5L12.77 55.22L17.5 68L22.22 55.22L35 50.5L22.22 45.77L17.5 33L12.77 45.77ZM17.5 35.88L13.55 46.55L2.88 50.5L13.55 54.44L17.5 65.11L21.44 54.44L32.11 50.5L21.44 46.55L17.5 35.88Z" fill="#202027" fill-opacity="1.000000" fill-rule="evenodd"/>
	<path id="Star 3" d="M61.66 7.66L54 10.5L61.66 13.33L64.5 21L67.33 13.33L75 10.5L67.33 7.66L64.5 0L61.66 7.66ZM64.5 2.88L62.44 8.44L56.88 10.5L62.44 12.55L64.5 18.11L66.55 12.55L72.11 10.5L66.55 8.44L64.5 2.88Z" fill="#202027" fill-opacity="1.000000" fill-rule="evenodd"/>
</svg>
