<svg width="301.643555" height="724.610596" viewBox="0 0 301.644 724.611" fill="none" xmlns="http://www.w3.org/2000/svg" xmlns:xlink="http://www.w3.org/1999/xlink">
	<desc>
			Created with Pixso.
	</desc>
	<defs/>
	<path id="Star 5" d="M93.83 660.61L91.4 667.18L84.83 669.61L91.4 672.04L93.83 678.61L96.26 672.04L102.83 669.61L96.26 667.18L93.83 660.61Z" fill="#BCEC30" fill-opacity="1.000000" fill-rule="evenodd"/>
	<path id="Star 5" d="M91.4 667.18L84.83 669.61L91.4 672.04L93.83 678.61L96.26 672.04L102.83 669.61L96.26 667.18L93.83 660.61L91.4 667.18ZM93.83 663.49L92.18 667.95L87.71 669.61L92.18 671.26L93.83 675.72L95.49 671.26L99.95 669.61L95.49 667.95L93.83 663.49Z" fill="#202027" fill-opacity="1.000000" fill-rule="evenodd"/>
	<path id="Star 4" d="M130.07 698.57L115.83 704.11L130.07 709.64L135.33 724.61L140.6 709.64L154.83 704.11L140.6 698.57L135.33 683.61L130.07 698.57ZM135.33 686.62L130.86 699.33L118.59 704.11L130.86 708.88L135.33 721.59L139.81 708.88L152.08 704.11L139.81 699.33L135.33 686.62Z" fill="#202027" fill-opacity="1.000000" fill-rule="evenodd"/>
	<path id="Vector" d="M191.06 113.71C193.9 114.5 273.12 147.53 273.12 147.53L189.08 156.43L242.17 223.68L167.32 177.74L159.69 255.6L138.59 173.61L68.28 212.61L116.72 155.37L30.75 151.5L111.55 127.6L51.51 59.38L135.92 98.56L155.24 22.97L163.92 98.72L240.81 46.47L191.06 113.71Z" fill="#BCEC30" fill-opacity="1.000000" fill-rule="nonzero"/>
	<path id="Vector" d="M273.12 147.53L189.08 156.43L242.17 223.68L167.32 177.74L159.69 255.6L138.59 173.61L68.28 212.61L116.72 155.37L30.75 151.5L111.55 127.6L51.51 59.38L135.92 98.56L155.24 22.97L163.92 98.72L240.81 46.47L191.06 113.71C193.9 114.5 273.12 147.53 273.12 147.53Z" stroke="#202027" stroke-opacity="1.000000" stroke-width="1.000000"/>
</svg>
