<svg width="119" height="109" viewBox="0 0 119 109" fill="none" xmlns="http://www.w3.org/2000/svg">
<path d="M83.6757 37.7028L90.2009 62.2974L90.2599 62.5196L90.467 62.6195L113.385 73.6756L88.7904 80.2008L88.5682 80.2598L88.4683 80.4669L77.4122 103.385L70.887 78.7903L70.828 78.5681L70.621 78.4682L47.7029 67.4121L72.2975 60.8869L72.5197 60.8279L72.6196 60.6209L83.6757 37.7028Z" stroke="#BCEC30"/>
<path d="M21.5959 3.5971L24.4149 15.5957L24.4675 15.8195L24.6716 15.9252L35.6151 21.5956L23.6165 24.4146L23.3927 24.4671L23.2869 24.6713L17.6166 35.6148L14.7976 23.6162L14.745 23.3924L14.5409 23.2866L3.5974 17.6163L15.596 14.7973L15.8198 14.7447L15.9256 14.5406L21.5959 3.5971Z" stroke="#BCEC30"/>
</svg>
