<svg width="1074.500000" height="1130.957642" viewBox="0 0 1074.5 1130.96" fill="none" xmlns="http://www.w3.org/2000/svg" xmlns:xlink="http://www.w3.org/1999/xlink">
	<desc>
			Created with Pixso.
	</desc>
	<defs/>
	<path id="Vector 4780" d="M241.29 323.45L317.5 411.83L0.5 486.45" stroke="#202027" stroke-opacity="1.000000" stroke-width="1.000000" stroke-linecap="round"/>
	<path id="Vector" d="M708.18 381.86C717.61 384.48 980.01 495.42 980.01 495.42L701.61 525.3L877.49 751.11L629.53 596.86L604.27 858.31L534.38 582.98L301.43 713.95L461.9 521.72L177.13 508.74L444.8 428.48L245.9 199.41L525.53 330.96L589.53 77.14L618.26 331.5L872.98 156.05L708.18 381.86Z" fill="#BCEC30" fill-opacity="1.000000" fill-rule="nonzero"/>
	<path id="Vector" d="M980.01 495.42L701.61 525.3L877.49 751.11L629.53 596.86L604.27 858.31L534.38 582.98L301.43 713.95L461.9 521.72L177.13 508.74L444.8 428.48L245.9 199.41L525.53 330.96L589.53 77.14L618.26 331.5L872.98 156.05L708.18 381.86C717.61 384.48 980.01 495.42 980.01 495.42Z" stroke="#202027" stroke-opacity="1.000000" stroke-width="1.000000"/>
	<path id="Vector 4781" d="M231.58 587.45L355.5 587.45L213.5 766.45" stroke="#202027" stroke-opacity="1.000000" stroke-width="1.000000" stroke-linecap="round"/>
	<path id="Vector 4782" d="M371.5 791.5L485.26 712.45L591.38 1130.46" stroke="#202027" stroke-opacity="1.000000" stroke-width="1.000000" stroke-linecap="round"/>
	<path id="Vector 4788" d="M449.65 801.45L393.5 860.22L473.5 927.45L449.65 801.45Z" fill="#BCEC30" fill-opacity="1.000000" fill-rule="nonzero"/>
	<path id="Vector 4788" d="M449.65 801.45L473.5 927.45L393.5 860.22L449.65 801.45Z" stroke="#202027" stroke-opacity="1.000000" stroke-width="1.000000"/>
	<path id="Vector 4791" d="M491.5 996.45L525.5 1120.46" stroke="#202027" stroke-opacity="1.000000" stroke-width="1.000000" stroke-linecap="round"/>
	<path id="Star 5" d="M113 871.45L108 884.96L94.5 889.95L108 894.95L113 908.45L117.99 894.95L131.5 889.95L117.99 884.96L113 871.45Z" fill="#BCEC30" fill-opacity="1.000000" fill-rule="evenodd"/>
	<path id="Star 5" d="M108 884.96L94.5 889.95L108 894.95L113 908.45L117.99 894.95L131.5 889.95L117.99 884.96L113 871.45L108 884.96ZM113 874.33L108.78 885.73L97.38 889.95L108.78 894.17L113 905.57L117.21 894.17L128.61 889.95L117.21 885.73L113 874.33Z" fill="#202027" fill-opacity="1.000000" fill-rule="evenodd"/>
	<path id="Star 4" d="M189.79 931.74L159.5 942.95L189.79 954.16L201 984.45L212.2 954.16L242.5 942.95L212.2 931.74L201 901.45L189.79 931.74ZM201 904.33L190.56 932.52L162.38 942.95L190.56 953.38L201 981.57L211.43 953.38L239.61 942.95L211.43 932.52L201 904.33Z" fill="#202027" fill-opacity="1.000000" fill-rule="evenodd"/>
</svg>
