<svg width="128.000000" height="82.000000" viewBox="0 0 128 82" fill="none" xmlns="http://www.w3.org/2000/svg" xmlns:xlink="http://www.w3.org/1999/xlink">
	<desc>
			Created with Pixso.
	</desc>
	<defs/>
	<path id="Star 2" d="M28.5 25L20.8 45.8L0 53.5L20.8 61.19L28.5 82L36.19 61.19L57 53.5L36.19 45.8L28.5 25Z" fill="#BCEC30" fill-opacity="1.000000" fill-rule="evenodd"/>
	<path id="Star 2" d="M20.8 45.8L0 53.5L20.8 61.19L28.5 82L36.19 61.19L57 53.5L36.19 45.8L28.5 25L20.8 45.8ZM28.5 27.88L21.58 46.58L2.88 53.5L21.58 60.41L28.5 79.11L35.41 60.41L54.11 53.5L35.41 46.58L28.5 27.88Z" fill="#202027" fill-opacity="1.000000" fill-rule="evenodd"/>
	<path id="Star 3" d="M105.77 12.77L93 17.5L105.77 22.22L110.5 35L115.22 22.22L128 17.5L115.22 12.77L110.5 0L105.77 12.77ZM110.5 2.88L106.55 13.55L95.88 17.5L106.55 21.44L110.5 32.11L114.44 21.44L125.11 17.5L114.44 13.55L110.5 2.88Z" fill="#202027" fill-opacity="1.000000" fill-rule="evenodd"/>
</svg>
